<?xml version="1.0" encoding="iso-8859-1"?>
<!-- Uploaded to: SVG Repo, www.svgrepo.com, Generator: SVG Repo Mixer Tools -->
<!-- <svg fill="#000000" height="800px" width="800px" version="1.1" id="Capa_1" xmlns="http://www.w3.org/2000/svg" xmlns:xlink="http://www.w3.org/1999/xlink" 
	 viewBox="0 0 612.006 612.006" xml:space="preserve"> -->
<!-- <svg width="40px" height="40px" viewBox="0 0 40 40" version="1.1" xmlns="http://www.w3.org/2000/svg" xmlns:xlink="http://www.w3.org/1999/xlink"> -->
<svg fill="#000000" width="40px" height="40px" version="1.1" id="Capa_1" xmlns="http://www.w3.org/2000/svg" xmlns:xlink="http://www.w3.org/1999/xlink" 
	 viewBox="0 0 612.006 612.006" xml:space="preserve">
<g>
	<g>
		<path d="M306.001,252.833c-28.933,0.512-52.239,24.11-52.239,53.171c0,29.058,23.306,52.659,52.239,53.171
			c28.939-0.512,52.242-24.113,52.242-53.171C358.241,276.944,334.939,253.343,306.001,252.833z"/>
		<path d="M514.136,202.742c-37.414-15.152-82.818-25.765-132.159-31.174c-13.737-18.431-27.895-35.401-42.217-50.696
			c32.482-27.397,61.692-41.597,81.945-41.597c5.825,0,10.64,1.168,14.72,3.573c16.473,9.698,22.716,43.007,16.383,87.077
			c16.327,3.748,31.907,8.135,46.54,13.134c0.262-1.623,0.521-3.24,0.757-4.85c10.003-67.349-3.966-115.908-39.331-136.724
			c-11.503-6.773-24.646-10.209-39.069-10.209c-34.244,0-74.775,20.12-115.705,55.252c-40.926-35.132-81.453-55.252-115.704-55.252
			c-14.42,0-27.561,3.435-39.066,10.209c-35.365,20.817-49.331,69.375-39.336,136.724c0.24,1.61,0.496,3.227,0.759,4.85
			c14.636-4.998,30.216-9.385,46.54-13.134c-6.331-44.07-0.087-77.381,16.383-87.077c4.087-2.407,8.895-3.573,14.719-3.573
			c20.251,0,49.464,14.2,81.949,41.597c-14.324,15.295-28.481,32.266-42.22,50.698c-49.337,5.411-94.738,16.022-132.156,31.172
			C34.756,228.294,0,264.968,0,306.004c0,41.035,34.756,77.708,97.869,103.261c37.418,15.15,82.818,25.763,132.156,31.175
			c13.737,18.431,27.895,35.401,42.22,50.695c-32.485,27.397-61.698,41.599-81.949,41.599c-5.825,0-10.634-1.168-14.719-3.573
			c-16.47-9.698-22.713-43.007-16.383-87.079c-16.324-3.747-31.904-8.137-46.54-13.134c-0.262,1.621-0.518,3.241-0.759,4.848
			c-9.994,67.352,3.973,115.909,39.338,136.726c11.503,6.775,24.646,10.208,39.066,10.208c34.251,0,74.778-20.118,115.705-55.251
			c40.929,35.132,81.461,55.251,115.705,55.251c14.423,0,27.565-3.434,39.069-10.208c35.365-20.817,49.334-69.374,39.331-136.726
			c-0.234-1.607-0.495-3.227-0.757-4.848c-14.633,4.995-30.213,9.387-46.54,13.134c6.334,44.072,0.09,77.381-16.383,87.079
			c-4.08,2.405-8.895,3.573-14.72,3.573c-20.253,0-49.464-14.202-81.945-41.599c14.322-15.295,28.478-32.266,42.217-50.696
			c49.344-5.412,94.745-16.022,132.159-31.174c63.109-25.554,97.866-62.228,97.866-103.261
			C612,264.968,577.244,228.294,514.136,202.742z M306.001,155.089c3.717,3.995,7.445,8.154,11.172,12.451
			c-3.714-0.06-7.435-0.1-11.172-0.106c-3.731,0.006-7.46,0.047-11.172,0.107C298.559,163.244,302.29,159.084,306.001,155.089z
			 M151.22,306.004c-7.603,17.035-14.287,33.96-19.967,50.559c14.18,5.16,29.649,9.617,46.136,13.339
			c0.803-2.315,1.629-4.64,2.475-6.967c2.506,4.464,5.058,8.924,7.675,13.371c2.062,3.5,4.145,6.964,6.24,10.395
			c-28.701-5.308-55.053-12.674-77.899-21.926c-41.871-16.953-67.887-39.477-67.887-58.772c0-27.871,53.516-63.846,145.873-80.85
			c-2.127,3.481-4.238,6.994-6.327,10.545c-2.617,4.445-5.169,8.906-7.675,13.371c-0.845-2.329-1.673-4.652-2.475-6.967
			c-16.488,3.72-31.958,8.181-46.136,13.337C136.933,272.044,143.619,288.966,151.22,306.004z M306.001,456.916
			c-3.71-3.993-7.441-8.156-11.172-12.452c3.714,0.06,7.441,0.101,11.172,0.107c3.737-0.006,7.46-0.047,11.172-0.107
			C313.445,448.76,309.716,452.923,306.001,456.916z M383.1,351.953c-8.935,15.178-18.099,29.439-27.376,42.79
			c-15.818,1.166-32.411,1.808-49.723,1.828v0.002c-16.895-0.024-33.538-0.667-49.759-1.89
			c-9.262-13.333-18.413-27.574-27.337-42.73c-8.993-15.276-17.247-30.648-24.728-45.951c7.481-15.303,15.735-30.678,24.728-45.953
			c8.935-15.178,18.096-29.44,27.373-42.79c15.822-1.166,32.411-1.806,49.723-1.83c16.898,0.022,33.538,0.667,49.759,1.888
			c9.265,13.334,18.416,27.574,27.34,42.732c8.993,15.275,17.25,30.649,24.728,45.953C400.35,321.306,392.094,336.678,383.1,351.953
			z M418.135,386.849c2.127-3.48,4.238-6.993,6.327-10.542c2.617-4.447,5.167-8.906,7.675-13.371
			c0.842,2.328,1.673,4.652,2.475,6.967c16.492-3.721,31.958-8.181,46.133-13.339c-5.676-16.599-12.361-33.524-19.967-50.559
			c7.606-17.038,14.29-33.96,19.967-50.562c-14.177-5.156-29.643-9.617-46.133-13.337c-0.803,2.315-1.632,4.638-2.475,6.967
			c-2.509-4.464-5.058-8.924-7.675-13.371c-2.062-3.5-4.145-6.964-6.24-10.398c28.698,5.31,55.053,12.675,77.902,21.926
			c41.867,16.953,67.88,39.477,67.88,58.775C564.003,333.873,510.487,369.848,418.135,386.849z"/>
	</g>
</g>
</svg>